{"asset":{"version":"2.0","generator":"VECTARY"},"nodes":[{"translation":[0,0.0776,1.4210854715202004e-17],"scale":[0.001,0.001,0.001],"rotation":[-0.7071067811865475,0,0,0.7071067811865476],"name":"Copy For Site","children":[1,13]},{"translation":[16.3,12.1,1.2],"scale":[0.9999999999999996,0.9999999999999996,0.9999999999999998],"rotation":[-0.4334471686483724,-0.541724094391151,0.5629688789553089,0.4491376168554571],"name":"Hammer Glowing Copy","children":[2,7,12]},{"translation":[0.014805922368961166,5.2348530855468685,58.49785808001576],"scale":[1,1,1],"rotation":[0,0,0,1],"name":"react3d2-01 1 - baked","children":[3]},{"translation":[-0.014805922368961166,0.26514691445311733,6.502140756651407],"scale":[0.029611844737895153,0.02920997564406023,0.0757346258709482],"rotation":[0.7071067811865475,0,0,0.7071067811865476],"name":"Layer_2 - baked 1","children":[4]},{"translation":[0,0,0],"scale":[1,1,1],"rotation":[0,0,0,1],"name":"Group - baked 1","children":[5,6]},{"translation":[0,0,0],"scale":[1,1,1],"rotation":[0,0,0,1],"name":"Path - baked 1 - baked","mesh":0},{"translation":[0,0,0.002],"scale":[1,1,1],"rotation":[0,0,0,1],"name":"Circle - baked 1 - baked","mesh":1},{"translation":[0.014805922368961166,-5.232517929149159,58.49785808001576],"scale":[1,1,1],"rotation":[0,0,0,1],"name":"react3d2-01 2 - baked","children":[8]},{"translation":[-0.014805922368961166,0.26514691445311733,6.502140756651407],"scale":[0.029611844737895153,0.02920997564406023,0.0757346258709482],"rotation":[0.7071067811865475,0,0,0.7071067811865476],"name":"Layer_2 - baked","children":[9]},{"translation":[0,0,0],"scale":[1,1,1],"rotation":[0,0,0,1],"name":"Group - baked","children":[10,11]},{"translation":[0,0,0],"scale":[1,1,1],"rotation":[0,0,0,1],"name":"Path - baked - baked","mesh":2},{"translation":[0,0,0.002],"scale":[1,1,1],"rotation":[0,0,0,1],"name":"Circle - baked - baked","mesh":3},{"translation":[0,0,0],"scale":[1,1,1],"rotation":[0,0,0,1],"name":"Merged Objects","mesh":4},{"translation":[0,0,-77.5],"scale":[1.0000000000000002,1,1],"rotation":[0,0,0,1],"name":"Anvil 1","mesh":5},{"translation":[0.0403811998601743,0.19485797182301723,-0.1896385936867716],"scale":[1,1,1],"rotation":[0.030281282762037398,-0.9497046036686264,-0.29616814915056705,-0.09710116947612135],"name":"Camera","camera":0}],"materials":[{"pbrMetallicRoughness":{"baseColorFactor":[1,1,1,0.5],"metallicFactor":0,"roughnessFactor":1},"name":"Material 4","emissiveFactor":[0.3803921568627451,0.8588235294117647,0.984313725490196],"alphaMode":"BLEND","doubleSided":true},{"pbrMetallicRoughness":{"baseColorFactor":[1,1,1,0.5],"metallicFactor":0,"roughnessFactor":1},"name":"Material 5","emissiveFactor":[0.3803921568627451,0.8588235294117647,0.984313725490196],"alphaMode":"BLEND","doubleSided":true},{"pbrMetallicRoughness":{"baseColorFactor":[1,1,1,0.5],"metallicFactor":0,"roughnessFactor":1},"name":"Material 6","emissiveFactor":[0.3803921568627451,0.8588235294117647,0.984313725490196],"alphaMode":"BLEND","doubleSided":true},{"pbrMetallicRoughness":{"baseColorFactor":[1,1,1,0.5],"metallicFactor":0,"roughnessFactor":1},"name":"Material 7","emissiveFactor":[0.3803921568627451,0.8588235294117647,0.984313725490196],"alphaMode":"BLEND","doubleSided":true},{"pbrMetallicRoughness":{"baseColorFactor":[0.42590528570714575,0.42590528570714575,0.42590528570714575,1],"metallicFactor":0,"roughnessFactor":0.2},"name":"Box material 7","emissiveFactor":[0,0,0],"alphaMode":"OPAQUE","doubleSided":false},{"pbrMetallicRoughness":{"baseColorFactor":[0.09868919754109445,0.09868919754109445,0.09868919754109445,1],"metallicFactor":0,"roughnessFactor":0.2},"name":"Box material 2","emissiveFactor":[0,0,0],"alphaMode":"OPAQUE","doubleSided":false}],"meshes":[{"primitives":[{"mode":4,"attributes":{"POSITION":1,"NORMAL":2,"TEXCOORD_0":3},"material":0,"indices":0}]},{"primitives":[{"mode":4,"attributes":{"POSITION":5,"NORMAL":6,"TEXCOORD_0":7},"material":1,"indices":4}]},{"primitives":[{"mode":4,"attributes":{"POSITION":9,"NORMAL":10,"TEXCOORD_0":11},"material":2,"indices":8}]},{"primitives":[{"mode":4,"attributes":{"POSITION":13,"NORMAL":14,"TEXCOORD_0":15},"material":3,"indices":12}]},{"primitives":[{"mode":4,"attributes":{"POSITION":17,"NORMAL":18,"TEXCOORD_0":19},"material":4,"indices":16}]},{"primitives":[{"mode":4,"attributes":{"POSITION":21,"NORMAL":22,"TEXCOORD_0":23},"material":5,"indices":20}]}],"accessors":[{"bufferView":0,"byteOffset":0,"componentType":5125,"count":12384,"type":"SCALAR"},{"bufferView":1,"byteOffset":0,"componentType":5126,"count":6120,"max":[250.39999389648438,222.45529174804688,6.799999713897705],"min":[-249.39999389648438,-222.60000610351562,0.20000000298023224],"type":"VEC3"},{"bufferView":2,"byteOffset":0,"componentType":5126,"count":6120,"type":"VEC3"},{"bufferView":3,"byteOffset":0,"componentType":5126,"count":6120,"type":"VEC2"},{"bufferView":4,"byteOffset":0,"componentType":5125,"count":228,"type":"SCALAR"},{"bufferView":5,"byteOffset":0,"componentType":5126,"count":120,"max":[45.100006103515625,44.600006103515625,6.799999713897705],"min":[-44.100006103515625,-44.600006103515625,0.20000000298023224],"type":"VEC3"},{"bufferView":6,"byteOffset":0,"componentType":5126,"count":120,"type":"VEC3"},{"bufferView":7,"byteOffset":0,"componentType":5126,"count":120,"type":"VEC2"},{"bufferView":8,"byteOffset":0,"componentType":5125,"count":12384,"type":"SCALAR"},{"bufferView":9,"byteOffset":0,"componentType":5126,"count":6120,"max":[250.39999389648438,222.45529174804688,6.799999713897705],"min":[-249.39999389648438,-222.60000610351562,0.20000000298023224],"type":"VEC3"},{"bufferView":10,"byteOffset":0,"componentType":5126,"count":6120,"type":"VEC3"},{"bufferView":11,"byteOffset":0,"componentType":5126,"count":6120,"type":"VEC2"},{"bufferView":12,"byteOffset":0,"componentType":5125,"count":228,"type":"SCALAR"},{"bufferView":13,"byteOffset":0,"componentType":5126,"count":120,"max":[45.100006103515625,44.600006103515625,6.799999713897705],"min":[-44.100006103515625,-44.600006103515625,0.20000000298023224],"type":"VEC3"},{"bufferView":14,"byteOffset":0,"componentType":5126,"count":120,"type":"VEC3"},{"bufferView":15,"byteOffset":0,"componentType":5126,"count":120,"type":"VEC2"},{"bufferView":16,"byteOffset":0,"componentType":5125,"count":264,"type":"SCALAR"},{"bufferView":17,"byteOffset":0,"componentType":5126,"count":98,"max":[15,5,75],"min":[-15,-5,0],"type":"VEC3"},{"bufferView":18,"byteOffset":0,"componentType":5126,"count":98,"type":"VEC3"},{"bufferView":19,"byteOffset":0,"componentType":5126,"count":98,"type":"VEC2"},{"bufferView":20,"byteOffset":0,"componentType":5125,"count":1986,"type":"SCALAR"},{"bufferView":21,"byteOffset":0,"componentType":5126,"count":1112,"max":[65.47722625732422,24.532604217529297,75.1003189086914],"min":[-65.47722625732422,-24.532604217529297,1.593723203782705e-30],"type":"VEC3"},{"bufferView":22,"byteOffset":0,"componentType":5126,"count":1112,"type":"VEC3"},{"bufferView":23,"byteOffset":0,"componentType":5126,"count":1112,"type":"VEC2"}],"bufferViews":[{"buffer":0,"byteOffset":0,"byteLength":49536,"target":34963},{"buffer":0,"byteOffset":49536,"byteLength":73440,"target":34962},{"buffer":0,"byteOffset":122976,"byteLength":73440,"target":34962},{"buffer":0,"byteOffset":196416,"byteLength":48960,"target":34962},{"buffer":0,"byteOffset":245376,"byteLength":912,"target":34963},{"buffer":0,"byteOffset":246288,"byteLength":1440,"target":34962},{"buffer":0,"byteOffset":247728,"byteLength":1440,"target":34962},{"buffer":0,"byteOffset":249168,"byteLength":960,"target":34962},{"buffer":0,"byteOffset":250128,"byteLength":49536,"target":34963},{"buffer":0,"byteOffset":299664,"byteLength":73440,"target":34962},{"buffer":0,"byteOffset":373104,"byteLength":73440,"target":34962},{"buffer":0,"byteOffset":446544,"byteLength":48960,"target":34962},{"buffer":0,"byteOffset":495504,"byteLength":912,"target":34963},{"buffer":0,"byteOffset":496416,"byteLength":1440,"target":34962},{"buffer":0,"byteOffset":497856,"byteLength":1440,"target":34962},{"buffer":0,"byteOffset":499296,"byteLength":960,"target":34962},{"buffer":0,"byteOffset":500256,"byteLength":1056,"target":34963},{"buffer":0,"byteOffset":501312,"byteLength":1176,"target":34962},{"buffer":0,"byteOffset":502488,"byteLength":1176,"target":34962},{"buffer":0,"byteOffset":503664,"byteLength":784,"target":34962},{"buffer":0,"byteOffset":504448,"byteLength":7944,"target":34963},{"buffer":0,"byteOffset":512392,"byteLength":13344,"target":34962},{"buffer":0,"byteOffset":525736,"byteLength":13344,"target":34962},{"buffer":0,"byteOffset":539080,"byteLength":8896,"target":34962}],"cameras":[{"name":"Camera","type":"perspective","extras":{"targetDistance":0.23911847051895171},"perspective":{"aspectRatio":1.5578947368421052,"yfov":0.6108652381980153,"zfar":29.049406820402208,"znear":0.0019287549105149633}}],"scene":0,"scenes":[{"nodes":[0,14],"name":"GrantCreates3D copy"}],"extensionsUsed":["KHR_texture_transform"],"buffers":[{"byteLength":547976,"uri":"GrantCreates3Dcopy.bin"}]}